<mxfile host="Electron" modified="2024-04-22T07:22:35.327Z" agent="Mozilla/5.0 (Windows NT 10.0; Win64; x64) AppleWebKit/537.36 (KHTML, like Gecko) draw.io/23.0.2 Chrome/120.0.6099.109 Electron/28.1.0 Safari/537.36" etag="P66y-Un86whyFqFhAOwu" version="23.0.2" type="device">
  <diagram name="Page-1" id="VKkNoMPAgN4xQ-Vmbln4">
    <mxGraphModel dx="794" dy="559" grid="1" gridSize="10" guides="1" tooltips="1" connect="1" arrows="1" fold="1" page="1" pageScale="1" pageWidth="1100" pageHeight="1700" math="0" shadow="0">
      <root>
        <object label="" id="0">
          <mxCell />
        </object>
        <mxCell id="1" parent="0" />
        <mxCell id="YG-Z12xjU9guvom_NeQO-3" value="TV SERIES" style="swimlane;childLayout=stackLayout;horizontal=1;startSize=50;horizontalStack=0;rounded=1;fontSize=14;fontStyle=0;strokeWidth=2;resizeParent=0;resizeLast=1;shadow=0;dashed=0;align=center;arcSize=4;whiteSpace=wrap;html=1;" parent="1" vertex="1">
          <mxGeometry x="170" y="100" width="160" height="180" as="geometry" />
        </mxCell>
        <mxCell id="YG-Z12xjU9guvom_NeQO-4" value="Series ID&lt;br&gt;Series name&lt;br&gt;Genre&lt;br&gt;Release Year&lt;br&gt;Description&lt;br&gt;Number of seasons" style="align=left;strokeColor=none;fillColor=none;spacingLeft=4;fontSize=12;verticalAlign=top;resizable=0;rotatable=0;part=1;html=1;" parent="YG-Z12xjU9guvom_NeQO-3" vertex="1">
          <mxGeometry y="50" width="160" height="130" as="geometry" />
        </mxCell>
        <mxCell id="YG-Z12xjU9guvom_NeQO-6" value="EPISODES" style="swimlane;childLayout=stackLayout;horizontal=1;startSize=50;horizontalStack=0;rounded=1;fontSize=14;fontStyle=0;strokeWidth=2;resizeParent=0;resizeLast=1;shadow=0;dashed=0;align=center;arcSize=4;whiteSpace=wrap;html=1;" parent="1" vertex="1">
          <mxGeometry x="510" y="270" width="180" height="220" as="geometry" />
        </mxCell>
        <mxCell id="YG-Z12xjU9guvom_NeQO-7" value="Episode ID&lt;br&gt;Episode name&lt;br&gt;Episode number&lt;br&gt;Duration&lt;br&gt;Plot summary&lt;br&gt;Viewer rating&lt;br&gt;Guest stars&lt;br&gt;Transmission Date&lt;br&gt;Actor ID&lt;br&gt;Director ID&lt;br&gt;Series ID" style="align=left;strokeColor=none;fillColor=none;spacingLeft=4;fontSize=12;verticalAlign=top;resizable=0;rotatable=0;part=1;html=1;" parent="YG-Z12xjU9guvom_NeQO-6" vertex="1">
          <mxGeometry y="50" width="180" height="170" as="geometry" />
        </mxCell>
        <mxCell id="YG-Z12xjU9guvom_NeQO-11" value="DIRECTORS" style="swimlane;childLayout=stackLayout;horizontal=1;startSize=50;horizontalStack=0;rounded=1;fontSize=14;fontStyle=0;strokeWidth=2;resizeParent=0;resizeLast=1;shadow=0;dashed=0;align=center;arcSize=4;whiteSpace=wrap;html=1;" parent="1" vertex="1">
          <mxGeometry x="170" y="430" width="180" height="240" as="geometry" />
        </mxCell>
        <mxCell id="YG-Z12xjU9guvom_NeQO-12" value="Directors ID&lt;br&gt;Director&#39;s name&lt;br&gt;Gender&lt;br&gt;D.O.B&lt;br&gt;Nationality&lt;br&gt;Years of experience&lt;br&gt;Awards won&lt;br&gt;Biography&lt;br&gt;Episode ID&lt;br&gt;Series ID" style="align=left;strokeColor=none;fillColor=none;spacingLeft=4;fontSize=12;verticalAlign=top;resizable=0;rotatable=0;part=1;html=1;" parent="YG-Z12xjU9guvom_NeQO-11" vertex="1">
          <mxGeometry y="50" width="180" height="190" as="geometry" />
        </mxCell>
        <mxCell id="YG-Z12xjU9guvom_NeQO-16" value="" style="edgeStyle=entityRelationEdgeStyle;fontSize=12;html=1;endArrow=ERoneToMany;startArrow=ERmandOne;rounded=0;exitX=1.016;exitY=0.171;exitDx=0;exitDy=0;exitPerimeter=0;" parent="1" edge="1">
          <mxGeometry width="100" height="100" relative="1" as="geometry">
            <mxPoint x="330.00000000000017" y="130.7800000000001" as="sourcePoint" />
            <mxPoint x="507.44" y="300" as="targetPoint" />
            <Array as="points">
              <mxPoint x="317.44" y="131" />
            </Array>
          </mxGeometry>
        </mxCell>
        <mxCell id="YG-Z12xjU9guvom_NeQO-9" value="ACTOR" style="swimlane;childLayout=stackLayout;horizontal=1;startSize=50;horizontalStack=0;rounded=1;fontSize=14;fontStyle=0;strokeWidth=2;resizeParent=0;resizeLast=1;shadow=0;dashed=0;align=center;arcSize=4;whiteSpace=wrap;html=1;" parent="1" vertex="1">
          <mxGeometry x="850" y="180" width="180" height="250" as="geometry" />
        </mxCell>
        <mxCell id="YG-Z12xjU9guvom_NeQO-10" value="Actor ID&lt;br&gt;Actor&#39;s name&lt;br&gt;Gender&lt;br&gt;D.O.B&lt;br&gt;Nationality&lt;br&gt;Height&lt;br&gt;Weight&lt;br&gt;Biography&lt;br&gt;Episode ID&lt;br&gt;Series ID" style="align=left;strokeColor=none;fillColor=none;spacingLeft=4;fontSize=12;verticalAlign=top;resizable=0;rotatable=0;part=1;html=1;" parent="YG-Z12xjU9guvom_NeQO-9" vertex="1">
          <mxGeometry y="50" width="180" height="200" as="geometry" />
        </mxCell>
        <mxCell id="YG-Z12xjU9guvom_NeQO-24" value="" style="edgeStyle=entityRelationEdgeStyle;fontSize=12;html=1;endArrow=ERoneToMany;startArrow=ERzeroToMany;rounded=0;exitX=1;exitY=0.25;exitDx=0;exitDy=0;entryX=0.007;entryY=0.099;entryDx=0;entryDy=0;entryPerimeter=0;" parent="1" source="YG-Z12xjU9guvom_NeQO-7" target="YG-Z12xjU9guvom_NeQO-9" edge="1">
          <mxGeometry width="100" height="100" relative="1" as="geometry">
            <mxPoint x="1020" y="280" as="sourcePoint" />
            <mxPoint x="830" y="480" as="targetPoint" />
          </mxGeometry>
        </mxCell>
        <mxCell id="1w3JbAY_f5RtESQ2giym-1" value="" style="edgeStyle=entityRelationEdgeStyle;fontSize=12;html=1;endArrow=ERzeroToMany;startArrow=ERmandOne;rounded=0;exitX=1.007;exitY=0.347;exitDx=0;exitDy=0;exitPerimeter=0;" edge="1" parent="1" source="YG-Z12xjU9guvom_NeQO-12">
          <mxGeometry width="100" height="100" relative="1" as="geometry">
            <mxPoint x="410" y="540" as="sourcePoint" />
            <mxPoint x="510" y="350" as="targetPoint" />
            <Array as="points">
              <mxPoint x="430" y="470" />
            </Array>
          </mxGeometry>
        </mxCell>
        <mxCell id="1w3JbAY_f5RtESQ2giym-5" value="Transmission" style="swimlane;childLayout=stackLayout;horizontal=1;startSize=50;horizontalStack=0;rounded=1;fontSize=14;fontStyle=0;strokeWidth=2;resizeParent=0;resizeLast=1;shadow=0;dashed=0;align=center;arcSize=4;whiteSpace=wrap;html=1;" vertex="1" parent="1">
          <mxGeometry x="720" y="640" width="160" height="120" as="geometry" />
        </mxCell>
        <mxCell id="1w3JbAY_f5RtESQ2giym-6" value="Transmission_id&lt;br&gt;Episode_id&lt;br&gt;Transmission_Date" style="align=left;strokeColor=none;fillColor=none;spacingLeft=4;fontSize=12;verticalAlign=top;resizable=0;rotatable=0;part=1;html=1;" vertex="1" parent="1w3JbAY_f5RtESQ2giym-5">
          <mxGeometry y="50" width="160" height="70" as="geometry" />
        </mxCell>
        <mxCell id="1w3JbAY_f5RtESQ2giym-7" value="" style="edgeStyle=entityRelationEdgeStyle;fontSize=12;html=1;endArrow=ERoneToMany;startArrow=ERoneToMany;rounded=0;exitX=1.011;exitY=0.064;exitDx=0;exitDy=0;exitPerimeter=0;" edge="1" parent="1" source="YG-Z12xjU9guvom_NeQO-11">
          <mxGeometry width="100" height="100" relative="1" as="geometry">
            <mxPoint x="70" y="330" as="sourcePoint" />
            <mxPoint x="170" y="230" as="targetPoint" />
          </mxGeometry>
        </mxCell>
        <mxCell id="1w3JbAY_f5RtESQ2giym-8" value="" style="edgeStyle=entityRelationEdgeStyle;fontSize=12;html=1;endArrow=ERoneToMany;startArrow=ERmandOne;rounded=0;entryX=0;entryY=0.25;entryDx=0;entryDy=0;" edge="1" parent="1" target="1w3JbAY_f5RtESQ2giym-5">
          <mxGeometry width="100" height="100" relative="1" as="geometry">
            <mxPoint x="690" y="460" as="sourcePoint" />
            <mxPoint x="790" y="360" as="targetPoint" />
          </mxGeometry>
        </mxCell>
      </root>
    </mxGraphModel>
  </diagram>
</mxfile>
